<?xml version="1.0" encoding="utf-8"?>
<!-- Generator: Adobe Illustrator 19.0.0, SVG Export Plug-In . SVG Version: 6.00 Build 0)  -->
<svg version="1.1" id="Layer_1" xmlns="http://www.w3.org/2000/svg" xmlns:xlink="http://www.w3.org/1999/xlink" x="0px" y="0px"
	 viewBox="-455 257 48 48" style="enable-background:new -455 257 48 48;" xml:space="preserve">
<style type="text/css">
	.st0{fill:#F1F1F1;}
</style>
<g>
	<path class="st0" d="M-410.7,292.4l-2.8-6.7c-0.1-0.1-0.2-0.2-0.3-0.3c-0.1,0-0.3,0-0.4,0l-6.7,4.1c-0.2,0.1-0.3,0.5-0.2,0.7
		c0.1,0.2,0.5,0.3,0.7,0.2l5.5-3.3c-0.4,2.1-2.4,4.7-2.5,4.7c-3.4,4.3-8.6,6.8-14.1,6.8c-8,0-15.1-5.3-17.2-12.9
		c-0.1-0.3-0.2-0.6-0.2-0.7c0-0.3-0.3-0.5-0.5-0.5c-0.3,0-0.5,0.3-0.5,0.5c0,0.3,0.2,0.8,0.2,0.9c2.3,8,9.8,13.6,18.2,13.6
		c5.8,0,11.3-2.6,14.9-7.2c0.1-0.1,2.1-2.7,2.6-5.1l2.3,5.5c0.1,0.2,0.3,0.3,0.5,0.3c0.1,0,0.1,0,0.2,0
		C-410.7,292.9-410.6,292.7-410.7,292.4z"/>
	<path class="st0" d="M-449.3,275.8c0,0,0,0.1,0.1,0.1c0,0,0,0,0,0.1c0,0.1,0.1,0.1,0.2,0.1c0,0,0,0,0,0c0,0,0,0,0,0
		c0,0,0.1,0,0.1,0c0,0,0,0,0,0c0,0,0,0,0,0c0,0,0,0,0,0c0.1,0,0.1,0,0.2,0c0,0,0,0,0,0l7.4-3.6c0.2-0.1,0.4-0.4,0.2-0.7
		c-0.1-0.3-0.4-0.4-0.7-0.2l-6.6,3.2c0.5-2.1,2.4-4.5,2.4-4.5c3.4-4.3,8.6-6.8,14.1-6.8c8,0,15.1,5.3,17.2,12.9
		c0.1,0.3,0.2,0.6,0.2,0.7c0,0.3,0.2,0.5,0.5,0.5c0,0,0,0,0,0c0.3,0,0.5-0.3,0.5-0.5c0-0.3-0.2-0.8-0.2-0.9
		c-2.3-8-9.8-13.6-18.2-13.6c-5.8,0-11.3,2.6-14.9,7.2c-0.1,0.1-1.5,2-2.3,4l-1.4-5.1c-0.1-0.3-0.4-0.4-0.6-0.3
		c-0.3,0.1-0.4,0.4-0.3,0.6L-449.3,275.8C-449.4,275.8-449.3,275.8-449.3,275.8z"/>
</g>
</svg>
